HIERARCHY
ROOT Hips
{
	OFFSET 16.857300 39.481499 -7.567760 
	CHANNELS 6 Xposition Yposition Zposition Zrotation Xrotation Yrotation
	JOINT LeftHip
	{
		OFFSET 3.430000 0.000000 0.000000 
		CHANNELS 6 Xposition Yposition Zposition Zrotation Xrotation Yrotation
		JOINT LeftKnee
		{
			OFFSET 0.000000 -18.469999 0.000000 
			CHANNELS 6 Xposition Yposition Zposition Zrotation Xrotation Yrotation
			JOINT LeftAnkle
			{
				OFFSET 0.000000 -17.950001 0.000000 
				CHANNELS 6 Xposition Yposition Zposition Zrotation Xrotation Yrotation
				End Site
				{
					OFFSET 0.000000 -3.120000 0.000000 
				}
			}
		}
	}
	JOINT RightHip
	{
		OFFSET -3.430000 0.000000 0.000000 
		CHANNELS 6 Xposition Yposition Zposition Zrotation Xrotation Yrotation
		JOINT RightKnee
		{
			OFFSET 0.000000 -18.469999 0.000000 
			CHANNELS 6 Xposition Yposition Zposition Zrotation Xrotation Yrotation
			JOINT RightAnkle
			{
				OFFSET 0.000000 -17.950001 0.000000 
				CHANNELS 6 Xposition Yposition Zposition Zrotation Xrotation Yrotation
				End Site
				{
					OFFSET 0.000000 -3.120000 0.000000 
				}
			}
		}
	}
	JOINT Chest
	{
		OFFSET 0.000000 4.570000 0.000000 
		CHANNELS 6 Xposition Yposition Zposition Zrotation Xrotation Yrotation
		JOINT CS_BVH
		{
			OFFSET 0.000000 6.570000 0.000000 
			CHANNELS 6 Xposition Yposition Zposition Zrotation Xrotation Yrotation
			JOINT LeftCollar
			{
				OFFSET 1.060000 4.190000 1.760000 
				CHANNELS 6 Xposition Yposition Zposition Zrotation Xrotation Yrotation
				JOINT LeftShoulder
				{
					OFFSET 5.810000 0.000000 0.000000 
					CHANNELS 6 Xposition Yposition Zposition Zrotation Xrotation Yrotation
					JOINT LeftElbow
					{
						OFFSET 0.000000 -12.080000 0.000000 
						CHANNELS 6 Xposition Yposition Zposition Zrotation Xrotation Yrotation
						JOINT LeftWrist
						{
							OFFSET 0.000000 -9.820000 0.000000 
							CHANNELS 6 Xposition Yposition Zposition Zrotation Xrotation Yrotation
							End Site
							{
								OFFSET 0.000000 -7.370000 0.000000 
							}
						}
					}
				}
			}
			JOINT RightCollar
			{
				OFFSET -1.060000 4.190000 1.760000 
				CHANNELS 6 Xposition Yposition Zposition Zrotation Xrotation Yrotation
				JOINT RightShoulder
				{
					OFFSET -6.060000 0.000000 0.000000 
					CHANNELS 6 Xposition Yposition Zposition Zrotation Xrotation Yrotation
					JOINT RightElbow
					{
						OFFSET 0.000000 -11.080000 0.000000 
						CHANNELS 6 Xposition Yposition Zposition Zrotation Xrotation Yrotation
						JOINT RightWrist
						{
							OFFSET 0.000000 -9.820000 0.000000 
							CHANNELS 6 Xposition Yposition Zposition Zrotation Xrotation Yrotation
							End Site
							{
								OFFSET 0.000000 -7.140010 0.000000 
							}
						}
					}
				}
			}
			JOINT Neck
			{
				OFFSET 0.000000 4.050000 0.000000 
				CHANNELS 6 Xposition Yposition Zposition Zrotation Xrotation Yrotation
				JOINT Head
				{
					OFFSET 0.000000 5.190000 0.000000 
					CHANNELS 6 Xposition Yposition Zposition Zrotation Xrotation Yrotation
					End Site
					{
						OFFSET 0.000000 4.140010 0.000000 
					}
				}
			}
		}
	}
}
MOTION
Frames: 8
Frame Time: 0.033333
31.558098 31.091698 10.984300 4.756070 -3.222220 69.875702 3.430000 -0.000000 0.000000 12.317000 -45.834499 13.885000 0.000000 -18.469999 -0.000000 121.742996 81.391403 -123.417000 0.000000 -17.950001 -0.000000 1.282450 -8.867130 -0.307359 -3.430000 0.000000 0.000000 10.397800 -46.821701 5.942250 0.000000 -18.469999 -0.000000 -18.253300 74.481697 22.295500 0.000000 -17.950001 -0.000000 -2.101390 -11.156600 0.475625 -0.000000 4.570000 0.000000 -6.478840 34.312199 -0.421085 -0.000000 6.570000 0.000000 -3.544670 37.489899 0.154320 1.060000 4.190000 1.760000 0.643151 -0.886186 -2.111980 5.810000 -0.000000 0.000000 -8.602050 -22.973499 12.063500 -0.000000 -12.080000 -0.000000 -27.834499 -63.917198 -82.365898 -0.000000 -9.820000 0.000000 16.589600 -5.921750 -0.869823 -1.060000 4.190000 1.760000 1.523600 -0.825409 9.680320 -6.060000 0.000000 0.000000 -13.283500 -32.798500 -48.504299 -0.000000 -11.080000 -0.000000 40.715500 -66.254898 96.548401 -0.000000 -9.820000 -0.000000 -16.431700 2.938920 -1.378270 -0.000000 4.050000 0.000000 1.690670 -34.258202 -11.396300 -0.000000 5.190000 0.000000 4.062840 -14.249500 -10.670000 
32.385201 32.198898 10.314400 5.496929 -2.876710 68.749191 3.430000 -0.000000 0.000000 8.673560 -44.014099 6.493760 0.000000 -18.469999 -0.000000 56.429298 77.990097 -55.894001 0.000000 -17.950001 -0.000000 0.983878 -8.779180 -0.306614 -3.430000 0.000000 0.000000 7.080880 -42.750599 3.760110 0.000000 -18.469999 -0.000000 -17.784599 70.250298 20.924500 0.000000 -17.950001 -0.000000 -2.019540 -11.030300 0.476540 -0.000000 4.570000 0.000000 -8.203880 34.203602 -0.192079 -0.000000 6.570000 0.000000 -3.609890 36.532001 -0.213383 1.060000 4.190000 1.760000 0.367600 -0.874438 -2.231190 5.810000 -0.000000 0.000000 -8.147300 -21.873199 10.808700 -0.000000 -12.080000 -0.000000 -28.177299 -64.336304 -82.600998 -0.000000 -9.820000 0.000000 16.615700 -5.971610 -0.946829 -1.060000 4.190000 1.760000 1.257280 -0.855674 9.560180 -6.060000 0.000000 0.000000 -11.789200 -31.648500 -44.636398 -0.000000 -11.080000 -0.000000 41.818901 -66.556702 97.749496 -0.000000 -9.820000 -0.000000 -16.335100 2.946830 -1.357450 -0.000000 4.050000 0.000000 2.242950 -34.120701 -12.667600 -0.000000 5.190000 0.000000 3.704580 -14.974900 -11.780100 
33.350399 33.138298 9.626510 7.076679 -3.035590 66.670006 3.430000 -0.000000 0.000000 5.764370 -39.228401 0.331924 0.000000 -18.469999 -0.000000 38.401299 66.871300 -34.602699 0.000000 -17.950001 -0.000000 0.614326 -8.742240 -0.305097 -3.430000 0.000000 0.000000 3.816700 -37.985901 1.360670 0.000000 -18.469999 -0.000000 -17.821600 66.361000 20.067499 0.000000 -17.950001 -0.000000 -1.937580 -10.857100 0.476698 -0.000000 4.570000 0.000000 -10.126600 34.315601 0.674761 -0.000000 6.570000 0.000000 -3.992750 35.627800 0.095213 1.060000 4.190000 1.760000 0.253394 -0.868712 -2.304410 5.810000 -0.000000 0.000000 -8.441200 -20.178301 8.827230 -0.000000 -12.080000 -0.000000 -27.578699 -64.483803 -82.531303 -0.000000 -9.820000 0.000000 16.506201 -5.892160 -0.943029 -1.060000 4.190000 1.760000 1.025410 -0.881354 9.426510 -6.060000 0.000000 0.000000 -10.951500 -29.549601 -41.705002 -0.000000 -11.080000 -0.000000 42.889000 -66.513802 98.801903 -0.000000 -9.820000 -0.000000 -16.218700 2.934760 -1.299680 -0.000000 4.050000 0.000000 3.712860 -33.587299 -13.813500 -0.000000 5.190000 0.000000 3.301930 -15.761800 -12.770500 
34.446999 33.532402 8.971970 8.622030 -4.157600 63.030296 3.430000 -0.000000 0.000000 5.616750 -32.949902 -2.624230 0.000000 -18.469999 -0.000000 35.310299 56.835201 -28.196899 0.000000 -17.950001 -0.000000 0.244186 -8.814710 -0.303252 -3.430000 0.000000 0.000000 2.173900 -34.326302 0.531077 0.000000 -18.469999 -0.000000 -19.084900 64.703201 20.655500 0.000000 -17.950001 -0.000000 -1.860490 -10.897300 0.476476 -0.000000 4.570000 0.000000 -11.573200 33.298199 1.981350 -0.000000 6.570000 0.000000 -4.809290 35.253399 1.368000 1.060000 4.190000 1.760000 0.233989 -0.866103 -2.341010 5.810000 -0.000000 0.000000 -9.195250 -18.262100 6.764470 -0.000000 -12.080000 -0.000000 -25.833401 -64.488998 -82.249100 -0.000000 -9.820000 0.000000 16.338200 -5.734020 -0.846819 -1.060000 4.190000 1.760000 0.937143 -0.886771 9.399920 -6.060000 0.000000 0.000000 -10.897300 -27.084400 -39.743999 -0.000000 -11.080000 -0.000000 44.146198 -66.399902 99.824600 -0.000000 -9.820000 -0.000000 -16.187099 2.964280 -1.333160 -0.000000 4.050000 0.000000 5.156130 -32.888000 -14.569300 -0.000000 5.190000 0.000000 3.100090 -16.424601 -13.423600 
35.532001 33.460701 8.327180 9.687429 -5.720440 58.518002 3.430000 -0.000000 0.000000 6.940780 -27.452900 -2.685420 0.000000 -18.469999 -0.000000 34.720100 51.622700 -25.872400 0.000000 -17.950001 -0.000000 0.024316 -8.888470 -0.301388 -3.430000 0.000000 0.000000 1.521890 -32.579601 1.063400 0.000000 -18.469999 -0.000000 -21.465099 65.261200 22.589800 0.000000 -17.950001 -0.000000 -1.774700 -11.029600 0.475638 -0.000000 4.570000 0.000000 -12.545000 31.035500 3.161660 -0.000000 6.570000 0.000000 -5.456010 35.555199 2.863700 1.060000 4.190000 1.760000 -0.102393 -0.850283 -2.463370 5.810000 -0.000000 0.000000 -9.356630 -16.646999 5.098180 -0.000000 -12.080000 -0.000000 -23.825600 -64.448601 -81.919098 -0.000000 -9.820000 0.000000 16.163500 -5.550250 -0.696853 -1.060000 4.190000 1.760000 0.965944 -0.885037 9.391180 -6.060000 0.000000 0.000000 -11.425100 -25.169600 -38.443298 -0.000000 -11.080000 -0.000000 44.808498 -66.184502 100.526001 -0.000000 -9.820000 -0.000000 -16.159401 3.017960 -1.401080 -0.000000 4.050000 0.000000 5.347710 -32.385201 -14.805300 -0.000000 5.190000 0.000000 3.592400 -16.757601 -13.701700 
36.458302 33.265495 7.666180 10.606700 -6.768890 54.703697 3.430000 -0.000000 0.000000 7.390730 -24.278900 -1.499280 0.000000 -18.469999 -0.000000 34.037701 51.488499 -25.476200 0.000000 -17.950001 -0.000000 0.006394 -8.981130 -0.299916 -3.430000 0.000000 0.000000 0.408425 -32.011398 1.690440 0.000000 -18.469999 -0.000000 -24.132401 66.441399 24.888800 0.000000 -17.950001 -0.000000 -1.724900 -10.987700 0.472849 -0.000000 4.570000 0.000000 -13.585600 28.713200 3.780150 -0.000000 6.570000 0.000000 -5.458560 36.020401 3.516350 1.060000 4.190000 1.760000 -0.632406 -0.821600 -2.617950 5.810000 -0.000000 0.000000 -8.370700 -15.845900 3.853620 -0.000000 -12.080000 -0.000000 -22.672300 -63.827400 -81.441597 -0.000000 -9.820000 0.000000 16.027800 -5.411220 -0.588022 -1.060000 4.190000 1.760000 1.036150 -0.879060 9.302700 -6.060000 0.000000 0.000000 -11.675500 -23.995199 -37.306198 -0.000000 -11.080000 -0.000000 44.396900 -65.869003 100.561996 -0.000000 -9.820000 -0.000000 -16.135201 3.024480 -1.402440 -0.000000 4.050000 0.000000 4.144260 -32.666801 -14.724100 -0.000000 5.190000 0.000000 4.826760 -16.455999 -13.812400 
37.201599 33.164497 7.017100 11.322600 -7.436040 52.099499 3.430000 -0.000000 0.000000 7.020100 -23.054501 -0.180987 0.000000 -18.469999 -0.000000 33.255100 53.655800 -25.847500 0.000000 -17.950001 -0.000000 0.091063 -9.062380 -0.299210 -3.430000 0.000000 0.000000 -0.929931 -31.671801 1.965240 0.000000 -18.469999 -0.000000 -26.144199 66.969803 26.535900 0.000000 -17.950001 -0.000000 -1.710140 -10.860700 0.470918 -0.000000 4.570000 0.000000 -14.247300 27.005699 3.678310 -0.000000 6.570000 0.000000 -4.833070 36.251499 3.114640 1.060000 4.190000 1.760000 -0.823824 -0.815462 -2.629330 5.810000 -0.000000 0.000000 -6.567740 -15.906200 3.155530 -0.000000 -12.080000 -0.000000 -22.658600 -62.182598 -80.759697 -0.000000 -9.820000 0.000000 16.054899 -5.473840 -0.697610 -1.060000 4.190000 1.760000 1.109540 -0.876672 9.224820 -6.060000 0.000000 0.000000 -10.962700 -23.227600 -36.066799 -0.000000 -11.080000 -0.000000 43.136398 -65.371201 99.985703 -0.000000 -9.820000 -0.000000 -16.220200 2.960770 -1.339150 -0.000000 4.050000 0.000000 2.569800 -34.090199 -14.647900 -0.000000 5.190000 0.000000 5.983890 -15.402800 -13.905600 
37.778099 33.247200 6.462180 11.247592 -8.199339 49.800400 3.430000 -0.000000 0.000000 7.101560 -22.404400 1.156900 0.000000 -18.469999 -0.000000 32.532299 55.126400 -25.967800 0.000000 -17.950001 -0.000000 0.161754 -9.108470 -0.299512 -3.430000 0.000000 0.000000 -1.378710 -31.351000 2.211890 0.000000 -18.469999 -0.000000 -26.689501 66.404404 26.743799 0.000000 -17.950001 -0.000000 -1.705470 -10.777700 0.469460 -0.000000 4.570000 0.000000 -13.982400 25.252399 3.082580 -0.000000 6.570000 0.000000 -4.061860 36.478001 2.388450 1.060000 4.190000 1.760000 -0.637712 -0.819511 -2.493580 5.810000 -0.000000 0.000000 -4.472920 -16.093300 3.341720 -0.000000 -12.080000 -0.000000 -22.972200 -60.136002 -80.016403 -0.000000 -9.820000 0.000000 16.256300 -5.753860 -1.040840 -1.060000 4.190000 1.760000 1.133160 -0.878104 9.260340 -6.060000 0.000000 0.000000 -9.504570 -22.634399 -34.779598 -0.000000 -11.080000 -0.000000 41.505199 -64.475601 99.287201 -0.000000 -9.820000 -0.000000 -16.355000 2.886560 -1.277750 -0.000000 4.050000 0.000000 1.554640 -36.049801 -14.621800 -0.000000 5.190000 0.000000 6.381580 -14.066600 -13.894200 
